<svg width="246" height="50" viewBox="0 0 246 50" fill="none" xmlns="http://www.w3.org/2000/svg">
<rect width="70" height="50" rx="10" fill="#FF7652"/>
<path d="M50.5 23.634C51.1667 24.0189 51.1667 24.9811 50.5 25.366L27.25 38.7894C26.5833 39.1743 25.75 38.6932 25.75 37.9234L25.75 11.0766C25.75 10.3068 26.5833 9.82568 27.25 10.2106L50.5 23.634Z" fill="white"/>
<path d="M94.9688 43.4219L95.1406 39.2656C95.1406 37.9219 95.0885 37.0729 94.9844 36.7188C94.8906 36.3646 94.7917 36.0521 94.6875 35.7812C94.5833 35.5104 94.4479 35.2917 94.2812 35.125C94.1146 34.9583 93.9167 34.8021 93.6875 34.6562C93.25 34.3646 92.5625 34.2188 91.625 34.2188C90.6875 34.2188 89.8958 34.599 89.25 35.3594C88.6146 36.1198 88.2969 37.0312 88.2969 38.0938C88.2969 38.4896 88.375 39.0781 88.5312 39.8594C88.6875 40.651 88.7656 41.2448 88.7656 41.6406C88.7656 42.3906 88.5 42.7656 87.9688 42.7656C87.4375 42.7656 87.1719 42.401 87.1719 41.6719C87.1719 41.2656 87.25 40.6562 87.4062 39.8438C87.5729 39.0312 87.6562 38.4167 87.6562 38L87.7656 33.8125V15.4531C87.7656 14.8073 87.5625 14.2865 87.1562 13.8906L87.4688 13.5625C87.9062 13.9792 88.4271 14.1875 89.0312 14.1875H94.6875C95.3125 14.1875 95.8333 13.9792 96.25 13.5625L96.5625 13.8906C96.1562 14.2969 95.9531 14.8177 95.9531 15.4531V33.7344C95.9531 34.276 95.8958 35.2083 95.7812 36.5312C95.6667 37.8646 95.6302 38.8906 95.6719 39.6094H95.6562C96.0417 41.3385 96.2344 42.6562 96.2344 43.5625C96.2344 44.4688 96.0625 44.9219 95.7188 44.9219C95.2188 44.9219 94.9688 44.4219 94.9688 43.4219ZM109.78 39.0938C109.78 39.4375 109.624 39.6094 109.311 39.6094C109.155 39.6094 109.03 39.5521 108.936 39.4375C108.842 39.3333 108.796 39.1302 108.796 38.8281C108.796 38.526 108.869 37.9323 109.014 37.0469C109.16 36.1719 109.233 35.4062 109.233 34.75C109.233 34.0833 109.061 33.3594 108.717 32.5781L100.967 14.75C100.738 14.1875 100.369 13.7344 99.8581 13.3906L100.061 13.0938C100.551 13.4167 101.113 13.5781 101.749 13.5781H107.202C107.837 13.5781 108.296 13.3594 108.577 12.9219L109.03 13.2031C108.853 13.4323 108.764 13.6562 108.764 13.875C108.764 14.0833 108.905 14.5625 109.186 15.3125C109.478 16.0625 109.858 17.0052 110.327 18.1406C110.796 19.2656 111.233 20.3125 111.639 21.2812C112.056 22.25 112.494 23.2656 112.952 24.3281C113.41 25.3906 113.665 25.9844 113.717 26.1094C113.77 25.9844 114.025 25.3906 114.483 24.3281C114.941 23.2656 115.374 22.25 115.78 21.2812C116.197 20.3125 116.639 19.2604 117.108 18.125C118.15 15.6146 118.671 14.2188 118.671 13.9375C118.671 13.6562 118.587 13.4115 118.421 13.2031L118.858 12.9219C119.139 13.3594 119.598 13.5781 120.233 13.5781H125.702C126.348 13.5781 126.915 13.4167 127.405 13.0938L127.592 13.3906C127.082 13.7344 126.712 14.1875 126.483 14.75L118.624 33.3438C118.488 33.6562 118.421 34.4062 118.421 35.5938C118.421 36.7812 118.54 38.099 118.78 39.5469C119.03 41.0052 119.155 42.0885 119.155 42.7969C119.155 43.8073 118.79 44.3125 118.061 44.3125C117.342 44.3125 116.983 43.8125 116.983 42.8125C116.983 42.1354 117.113 41.1302 117.374 39.7969C117.634 38.474 117.764 37.2604 117.764 36.1562C117.764 35.0521 117.629 34.5 117.358 34.5H109.796C109.629 34.5 109.546 34.8854 109.546 35.6562L109.78 39.0938ZM138.81 43.4219L138.982 39.2656C138.982 37.9219 138.93 37.0729 138.826 36.7188C138.732 36.3646 138.633 36.0521 138.529 35.7812C138.425 35.5104 138.289 35.2917 138.123 35.125C137.956 34.9583 137.758 34.8021 137.529 34.6562C137.091 34.3646 136.404 34.2188 135.466 34.2188C134.529 34.2188 133.737 34.599 133.091 35.3594C132.456 36.1198 132.138 37.0312 132.138 38.0938C132.138 38.4896 132.216 39.0781 132.373 39.8594C132.529 40.651 132.607 41.2448 132.607 41.6406C132.607 42.3906 132.341 42.7656 131.81 42.7656C131.279 42.7656 131.013 42.401 131.013 41.6719C131.013 41.2656 131.091 40.6562 131.248 39.8438C131.414 39.0312 131.498 38.4167 131.498 38L131.607 33.8125V15.4531C131.607 14.8073 131.404 14.2865 130.998 13.8906L131.31 13.5625C131.748 13.9792 132.268 14.1875 132.873 14.1875H138.529C139.154 14.1875 139.675 13.9792 140.091 13.5625L140.404 13.8906C139.998 14.2969 139.794 14.8177 139.794 15.4531V33.7344C139.794 34.276 139.737 35.2083 139.623 36.5312C139.508 37.8646 139.471 38.8906 139.513 39.6094H139.498C139.883 41.3385 140.076 42.6562 140.076 43.5625C140.076 44.4688 139.904 44.9219 139.56 44.9219C139.06 44.9219 138.81 44.4219 138.81 43.4219ZM154.856 38.8594L155.168 36.6406C155.168 36.3906 155.116 36.0521 155.012 35.625C154.918 35.2083 154.783 35 154.606 35H148.043C147.429 35 146.913 35.2031 146.496 35.6094L146.184 35.2969C146.58 34.901 146.778 34.3802 146.778 33.7344V15.4531C146.778 14.7969 146.58 14.276 146.184 13.8906L146.496 13.5625C146.923 13.9792 147.439 14.1875 148.043 14.1875H160.965C167.194 14.1875 171.059 16.2135 172.559 20.2656C172.975 21.4115 173.184 22.7135 173.184 24.1719C173.184 28.2969 172.069 31.1823 169.84 32.8281C168.309 33.9635 166.012 34.6458 162.949 34.875C161.762 34.9688 160.392 35.0104 158.84 35C157.288 35 156.382 35 156.121 35C155.944 35 155.793 35.25 155.668 35.75C155.543 36.25 155.481 36.625 155.481 36.875L155.746 38.875C155.746 39.2708 155.595 39.4688 155.293 39.4688C155.001 39.4688 154.856 39.2656 154.856 38.8594ZM163.793 28.1094C164.106 27.6927 164.35 27.1562 164.528 26.5C164.705 25.8333 164.793 25.0365 164.793 24.1094C164.793 23.1719 164.637 22.3906 164.324 21.7656C164.012 21.1406 163.595 20.6823 163.074 20.3906C162.554 20.099 161.975 19.8854 161.34 19.75C160.705 19.6042 160.038 19.526 159.34 19.5156C158.653 19.4948 158.007 19.4792 157.403 19.4688C155.923 19.4479 154.975 19.2292 154.559 18.8125L154.246 19.125C154.653 19.5208 154.856 20.0417 154.856 20.6875C154.856 25.3438 154.866 28.3333 154.887 29.6562H158.434C160.205 29.6562 161.46 29.5 162.199 29.1875C162.949 28.875 163.481 28.5156 163.793 28.1094ZM187.417 32.4062L187.167 30.4688V30.2969C187.386 29.9115 187.683 29.7188 188.058 29.7188L200.808 29.7344C201.443 29.7344 201.959 29.5312 202.354 29.125L202.667 29.4375C202.209 29.8958 201.979 30.7708 201.979 32.0625C201.979 32.0625 201.979 32.3646 201.979 32.9688C201.979 34.0208 202.209 34.7865 202.667 35.2656L202.354 35.5781C201.948 35.1719 201.433 34.9688 200.808 34.9688H182.323C181.396 34.9688 180.714 35.1458 180.276 35.5C179.776 35.9167 179.526 37.0938 179.526 39.0312C179.526 39.8125 179.646 40.9635 179.886 42.4844C180.125 44.0156 180.245 45.1667 180.245 45.9375C180.245 47.0521 179.849 47.6094 179.058 47.6094C178.203 47.6094 177.776 47.0365 177.776 45.8906C177.776 45.1094 177.948 43.9531 178.292 42.4219C178.636 40.8906 178.808 39.7292 178.808 38.9375L178.729 33.7031V15.4844C178.729 14.8385 178.531 14.3229 178.136 13.9375L178.448 13.6094C178.875 14.0156 179.396 14.2188 180.011 14.2188H200.073C200.709 14.2188 201.229 14.0156 201.636 13.6094L201.948 13.9375C201.49 14.3958 201.261 15.2604 201.261 16.5312V17.4062C201.261 18.5208 201.49 19.3021 201.948 19.75L201.636 20.0469C201.115 19.5156 199.891 19.25 197.964 19.25L190.198 19.6094C188.281 19.6094 187.063 19.3438 186.542 18.8125L186.214 19.125C186.62 19.5208 186.823 20.0469 186.823 20.7031C186.823 21.349 186.62 21.8698 186.214 22.2656L186.542 22.5625C187.042 22.0417 188.094 21.7812 189.698 21.7812L196.245 22.1406C197.86 22.1406 198.927 21.8802 199.448 21.3594L199.776 21.6719C199.318 22.1302 199.089 23.0104 199.089 24.3125V25.1875C199.089 26.2604 199.318 27.0365 199.776 27.5156L199.448 27.8438C198.948 27.3229 197.891 27.0625 196.276 27.0625L189.729 27.4062C188.125 27.4062 187.063 27.1458 186.542 26.625L186.229 26.9375C186.542 27.25 186.724 27.625 186.776 28.0625C186.828 28.4896 186.86 28.7969 186.87 28.9844C186.88 29.1615 186.88 29.4427 186.87 29.8281C186.86 30.2031 186.854 30.4271 186.854 30.5L186.589 32.375C186.589 32.75 186.724 32.9375 186.995 32.9375C187.276 32.9375 187.417 32.7604 187.417 32.4062ZM221.197 37.5312L221.306 36.0312C221.306 35.7708 221.181 35.5677 220.931 35.4219C220.681 35.2865 220.41 35.2188 220.119 35.2188C219.827 35.2188 219.567 35.2969 219.338 35.4531C219.108 35.6094 218.994 35.8333 218.994 36.125V39.7188C218.994 40.2396 219.103 41.0052 219.322 42.0156C219.541 43.026 219.65 43.7448 219.65 44.1719C219.65 44.6094 219.556 44.9688 219.369 45.25C219.181 45.5312 218.921 45.6719 218.588 45.6719C218.265 45.6719 218.02 45.526 217.853 45.2344C217.686 44.9427 217.603 44.5625 217.603 44.0938C217.603 43.625 217.723 42.8125 217.963 41.6562C218.202 40.5 218.322 39.6042 218.322 38.9688C218.322 36.3958 217.843 35.1094 216.884 35.1094C215.593 35.1094 214.947 35.0573 214.947 34.9531V34.9844C214.947 35.7031 215.103 36.7552 215.416 38.1406C215.739 39.5365 215.9 40.5365 215.9 41.1406C215.9 41.7448 215.791 42.2396 215.572 42.625C215.353 43.0208 215.015 43.2188 214.556 43.2188C214.108 43.2188 213.754 43.0312 213.494 42.6562C213.244 42.2812 213.119 41.7917 213.119 41.1875C213.119 40.5938 213.27 39.5677 213.572 38.1094C213.874 36.6615 214.025 35.5625 214.025 34.8125C211.556 34.0312 209.697 32.7552 208.447 30.9844C207.207 29.2135 206.588 27.026 206.588 24.4219C206.588 19.026 209.306 15.6198 214.744 14.2031C216.504 13.7448 218.322 13.5156 220.197 13.5156C222.082 13.5156 223.681 13.6198 224.994 13.8281C226.317 14.0365 227.593 14.4062 228.822 14.9375C230.061 15.4583 231.114 16.125 231.978 16.9375C232.853 17.7396 233.551 18.7812 234.072 20.0625C234.593 21.3333 234.853 22.7865 234.853 24.4219C234.853 27.7552 233.916 30.3385 232.041 32.1719C230.166 33.9948 227.53 35.1146 224.134 35.5312C224.093 35.6042 224.072 35.7188 224.072 35.875L224.15 36.7344C224.15 37.2656 224.004 37.5312 223.713 37.5312C223.421 37.5312 223.275 37.276 223.275 36.7656L223.322 35.8906C223.322 35.5781 223.098 35.4219 222.65 35.4219C222.608 35.5156 222.588 35.6927 222.588 35.9531L222.666 37.4688C222.666 37.7812 222.608 38.0833 222.494 38.375C222.379 38.6667 222.186 38.8125 221.916 38.8125C221.436 38.8125 221.197 38.3854 221.197 37.5312ZM215.291 24.4375C215.291 28.25 217.103 30.1562 220.728 30.1562C224.353 30.1562 226.166 28.25 226.166 24.4375C226.166 22.6875 225.697 21.349 224.759 20.4219C223.822 19.4948 222.478 19.0312 220.728 19.0312C218.978 19.0312 217.634 19.4948 216.697 20.4219C215.759 21.349 215.291 22.6875 215.291 24.4375Z" fill="white"/>
</svg>
